<svg width="102" height="176" viewBox="0 0 102 176" fill="none" xmlns="http://www.w3.org/2000/svg">
<path d="M0.508725 120.274C0.508727 95.8663 5.06672 81.4569 19.9562 58.0784C35.3014 34.2589 65.3841 10.8804 87.2625 -0.000138757L94.2514 13.0859C75.4117 26.0249 63.2571 36.1703 49.887 61.0191C46.0886 68.0768 43.9616 74.2522 42.7461 79.8395C45.6328 79.2514 48.8234 78.9573 52.014 78.9573C79.6658 78.9573 102 100.718 102 127.479C102 154.239 79.6658 176 52.014 176C29.0721 176 9.6247 161.002 3.85125 140.418C1.72419 134.536 0.508724 127.92 0.508725 120.274Z" fill="white"/>
</svg>
