<svg width="102" height="176" viewBox="0 0 102 176" fill="none" xmlns="http://www.w3.org/2000/svg">
<path d="M101.492 55.726C101.492 80.1337 96.9336 94.543 82.0441 117.921C66.6988 141.741 36.616 165.119 14.7376 176L7.74861 162.914C26.5884 149.975 38.743 139.83 52.1132 114.981C55.9115 107.923 58.0386 101.748 59.2541 96.1604C56.3673 96.7485 53.1767 97.0426 49.9861 97.0426C22.3342 97.0426 0 75.2815 0 48.5213C0 21.7611 22.3342 0 49.9861 0C72.9281 0 92.3756 14.9975 98.1491 35.5823C100.276 41.4637 101.492 48.0802 101.492 55.726Z" fill="white"/>
</svg>
